<svg width="200" height="60" viewBox="0 0 200 60" fill="none" xmlns="http://www.w3.org/2000/svg">
<path d="M21.8866 10.3464L13.5071 15.1954H0.086792L24.7478 0.0738525V5.37118C24.7478 7.42134 23.658 9.31915 21.8822 10.3421L21.8866 10.3464ZM24.7521 24.9891V30.3518L0.086792 15.1997H13.5071L21.8736 20.0139C23.6537 21.0368 24.7478 22.9346 24.7478 24.9935L24.7521 24.9891Z" fill="url(#paint0_linear_304_9)"/>
<path d="M24.7478 59.1542L0 41.7431V17.8029L24.7478 33.0376V59.1542Z" fill="url(#paint1_linear_304_9)"/>
<path d="M30.2531 10.2682L38.7368 15.1172H52.3177L27.3572 0V5.29733C27.3572 7.34748 28.46 9.24529 30.2531 10.2682ZM27.3572 24.9109V30.2736L52.3177 15.1215H38.7368L30.2661 19.9357C28.4643 20.9586 27.3572 22.8564 27.3572 24.9153V24.9109Z" fill="url(#paint2_linear_304_9)"/>
<path d="M27.3528 59.0802L52.3958 41.6691V17.7289L27.3528 32.9636V59.0802Z" fill="url(#paint3_linear_304_9)"/>
<path d="M81.7332 26.0764C83.1934 26.0764 84.24 25.7478 84.8728 25.0907C85.5299 24.4092 85.8585 23.5331 85.8585 22.4622C85.8585 21.44 85.5299 20.6003 84.8728 19.9432C84.24 19.286 83.1934 18.9575 81.7332 18.9575H76.9142V26.0764H81.7332ZM71.8397 39V14.7591H82.5363C83.7289 14.7591 84.7998 14.966 85.749 15.3798C86.6981 15.7692 87.5135 16.329 88.1949 17.0591C88.8764 17.7649 89.3997 18.5924 89.7648 19.5416C90.1298 20.4908 90.3124 21.513 90.3124 22.6082C90.3124 23.7034 90.1298 24.7256 89.7648 25.6748C89.3997 26.5997 88.8764 27.4028 88.1949 28.0843C87.5135 28.7414 86.6981 29.2647 85.749 29.6541C84.7998 30.0192 83.7289 30.2017 82.5363 30.2017H76.9142V39H71.8397ZM102.772 39V27.8653C102.772 26.5023 102.529 25.5775 102.042 25.0907C101.58 24.5796 100.801 24.3241 99.7056 24.3241C99.1215 24.3241 98.5982 24.4457 98.1358 24.6891C97.6734 24.9082 97.2839 25.2246 96.9675 25.6383C96.6511 26.0277 96.4078 26.4902 96.2374 27.0256C96.0914 27.5367 96.0184 28.0965 96.0184 28.7049V39H91.2724V14.4671H96.0184V23.3749C96.1887 22.9855 96.4443 22.6204 96.785 22.2796C97.1501 21.9146 97.5638 21.6103 98.0263 21.367C98.4887 21.1236 98.9998 20.9289 99.5596 20.7828C100.119 20.6368 100.703 20.5638 101.312 20.5638C103.162 20.5638 104.658 21.0749 105.802 22.0971C106.971 23.095 107.555 24.4944 107.555 26.2955V39H102.772ZM120.882 36.627C120.541 37.4302 119.92 38.063 119.02 38.5254C118.144 38.9635 117.146 39.1825 116.026 39.1825C115.077 39.1825 114.201 39.0365 113.398 38.7444C112.594 38.4281 111.901 37.99 111.317 37.4302C110.733 36.8461 110.27 36.1646 109.929 35.3858C109.613 34.5826 109.455 33.6821 109.455 32.6842V21.0384H114.201V31.9906C114.201 34.2297 115.211 35.3493 117.231 35.3493C118.326 35.3493 119.202 35.0329 119.859 34.4001C120.541 33.7673 120.882 32.9641 120.882 31.9906V21.0384H125.628V39.4746C125.628 40.7402 125.408 41.8719 124.97 42.8698C124.557 43.8676 123.973 44.7073 123.218 45.3888C122.488 46.0703 121.612 46.5935 120.589 46.9586C119.592 47.3237 118.521 47.5062 117.377 47.5062C114.724 47.5062 112.74 46.8369 111.426 45.4983C110.112 44.1597 109.455 42.3222 109.455 39.9857H113.872C113.872 41.0566 114.176 41.8962 114.785 42.5047C115.418 43.1132 116.355 43.4174 117.596 43.4174C118.034 43.4174 118.448 43.32 118.837 43.1253C119.227 42.955 119.567 42.6994 119.859 42.3587C120.176 42.0423 120.419 41.6407 120.589 41.1539C120.784 40.6672 120.882 40.1317 120.882 39.5476V36.627ZM138.336 26.478C138.215 25.6505 137.898 25.0542 137.387 24.6891C136.9 24.2997 136.146 24.105 135.124 24.105C134.15 24.105 133.408 24.2267 132.897 24.4701C132.41 24.6891 132.167 25.0785 132.167 25.6383C132.167 26.1251 132.41 26.5145 132.897 26.8066C133.408 27.0986 134.138 27.3785 135.087 27.6462C136.645 28.0843 137.959 28.4616 139.03 28.778C140.101 29.07 140.953 29.4229 141.585 29.8367C142.243 30.2504 142.705 30.7737 142.973 31.4065C143.265 32.0149 143.411 32.8424 143.411 33.889C143.411 35.4953 142.742 36.8339 141.403 37.9048C140.064 38.9513 138.081 39.4746 135.452 39.4746C134.162 39.4746 132.994 39.3286 131.948 39.0365C130.901 38.7444 130 38.3307 129.246 37.7953C128.516 37.2355 127.944 36.5783 127.53 35.8239C127.141 35.045 126.934 34.181 126.91 33.2318H131.802C131.802 34.0837 132.13 34.7408 132.787 35.2032C133.469 35.6657 134.345 35.8969 135.416 35.8969C136.316 35.8969 137.083 35.763 137.716 35.4953C138.373 35.2032 138.701 34.7652 138.701 34.181C138.701 33.5239 138.458 33.0493 137.971 32.7572C137.509 32.4652 136.791 32.2096 135.817 31.9906C134.065 31.6012 132.653 31.1996 131.582 30.7859C130.512 30.3478 129.672 29.8732 129.063 29.3621C128.479 28.851 128.078 28.2912 127.859 27.6827C127.664 27.0743 127.567 26.3928 127.567 25.6383C127.567 24.9568 127.701 24.3119 127.968 23.7034C128.26 23.095 128.711 22.5595 129.319 22.0971C129.927 21.6347 130.718 21.2696 131.692 21.0019C132.666 20.7098 133.858 20.5638 135.27 20.5638C137.85 20.5638 139.736 21.0871 140.928 22.1336C142.121 23.1802 142.778 24.6283 142.9 26.478H138.336ZM153.187 35.4223C154.356 35.4223 155.317 34.9842 156.071 34.108C156.85 33.2075 157.24 31.9906 157.24 30.4573C157.24 26.6118 155.889 24.6891 153.187 24.6891C150.486 24.6891 149.135 26.5145 149.135 30.1652C149.135 31.7716 149.512 33.0493 150.267 33.9985C151.046 34.9477 152.019 35.4223 153.187 35.4223ZM157.094 36.5905C156.753 37.3937 156.132 38.0265 155.232 38.4889C154.356 38.927 153.333 39.146 152.165 39.146C150.681 39.146 149.427 38.8905 148.405 38.3794C147.407 37.8439 146.592 37.1503 145.959 36.2985C145.35 35.4466 144.9 34.4609 144.608 33.3414C144.34 32.2218 144.207 31.0779 144.207 29.9097C144.207 28.5224 144.413 27.2568 144.827 26.1129C145.241 24.9447 145.801 23.959 146.507 23.1558C147.212 22.3283 148.04 21.6955 148.989 21.2574C149.938 20.795 150.96 20.5638 152.056 20.5638C154.295 20.5638 155.974 21.4643 157.094 23.2653V21.0384H161.84V39.1825C161.84 40.5455 161.608 41.738 161.146 42.7603C160.684 43.8068 160.051 44.6708 159.248 45.3523C158.444 46.0581 157.495 46.5935 156.4 46.9586C155.305 47.3237 154.137 47.5062 152.895 47.5062C151.654 47.5062 150.498 47.3237 149.427 46.9586C148.356 46.6179 147.431 46.1189 146.653 45.4618C145.898 44.829 145.302 44.0502 144.864 43.1253C144.426 42.2005 144.207 41.1539 144.207 39.9857H148.624C148.624 41.0809 148.977 41.9206 149.683 42.5047C150.413 43.1132 151.374 43.4174 152.567 43.4174C153.832 43.4174 154.903 43.0645 155.779 42.3587C156.656 41.6772 157.094 40.7402 157.094 39.5476V36.5905ZM175.435 39V36.481C174.218 38.4767 172.356 39.4746 169.849 39.4746C168.948 39.4746 168.121 39.3164 167.366 39C166.636 38.6836 166.004 38.2333 165.468 37.6492C164.933 37.0651 164.507 36.3715 164.19 35.5683C163.898 34.7652 163.752 33.8646 163.752 32.8668V21.0384H168.498V32.1366C168.498 34.3757 169.508 35.4953 171.528 35.4953C172.745 35.4953 173.658 35.1181 174.266 34.3636C174.899 33.5847 175.216 32.599 175.216 31.4065V21.0384H179.925V39H175.435ZM193.327 39V28.1208C193.327 26.7335 193.096 25.7965 192.634 25.3098C192.171 24.823 191.38 24.5796 190.261 24.5796C187.803 24.5796 186.574 25.9547 186.574 28.7049V39H181.828V21.0384H186.355V23.6669C186.914 22.6447 187.657 21.8781 188.582 21.367C189.506 20.8315 190.699 20.5638 192.159 20.5638C193.011 20.5638 193.802 20.6977 194.532 20.9654C195.262 21.2088 195.883 21.586 196.394 22.0971C196.93 22.6082 197.343 23.241 197.635 23.9955C197.952 24.7256 198.11 25.5775 198.11 26.551V39H193.327Z" fill="white"/>
<defs>
<linearGradient id="paint0_linear_304_9" x1="12.4195" y1="0.0738525" x2="12.4195" y2="30.3518" gradientUnits="userSpaceOnUse">
<stop offset="0.9999" stop-color="#0085FF"/>
<stop offset="1" stop-color="#0085FF" stop-opacity="0.6"/>
</linearGradient>
<linearGradient id="paint1_linear_304_9" x1="12.3739" y1="17.8029" x2="12.3739" y2="59.1542" gradientUnits="userSpaceOnUse">
<stop stop-color="#0085FF"/>
<stop offset="1" stop-color="#0085FF" stop-opacity="0.6"/>
</linearGradient>
<linearGradient id="paint2_linear_304_9" x1="39.8375" y1="0" x2="39.8375" y2="30.2736" gradientUnits="userSpaceOnUse">
<stop offset="0.9999" stop-color="#0085FF"/>
<stop offset="1" stop-color="#0085FF" stop-opacity="0.6"/>
</linearGradient>
<linearGradient id="paint3_linear_304_9" x1="39.8743" y1="17.7289" x2="39.8743" y2="59.0802" gradientUnits="userSpaceOnUse">
<stop stop-color="#0085FF"/>
<stop offset="1" stop-color="#0085FF" stop-opacity="0.6"/>
</linearGradient>
</defs>
</svg>
